M48
; DRILL file {KiCad 5.1.9+dfsg1-1} date Sat Sep 10 10:36:13 2022
; FORMAT={-:-/ absolute / metric / decimal}
; #@! TF.CreationDate,2022-09-10T10:36:13-05:00
; #@! TF.GenerationSoftware,Kicad,Pcbnew,5.1.9+dfsg1-1
; #@! TF.FileFunction,Plated,1,2,PTH
FMAT,2
METRIC
T1C0.400
T2C0.750
T3C0.800
T4C1.000
T5C1.100
T6C1.200
T7C1.270
T8C1.300
%
G90
G05
T1
X83.185Y-60.96
X83.185Y-69.215
T2
X78.105Y-69.85
X79.375Y-69.85
X80.645Y-69.85
T3
X72.39Y-54.61
X72.39Y-76.2
X72.39Y-83.82
X72.39Y-86.995
X72.39Y-94.615
X74.39Y-54.61
X76.835Y-60.405
X76.835Y-65.405
X80.645Y-60.405
X80.645Y-65.405
X83.185Y-76.835
X85.725Y-62.865
X85.725Y-67.865
X88.185Y-76.835
X88.9Y-73.66
X89.535Y-62.865
X89.535Y-70.485
X90.885Y-76.835
X92.075Y-62.865
X92.075Y-70.485
X94.615Y-62.865
X94.615Y-70.485
X95.885Y-76.835
X96.52Y-73.66
X97.155Y-62.865
X97.155Y-70.485
X98.15Y-87.63
X99.06Y-73.66
X99.695Y-62.865
X99.695Y-70.485
X101.6Y-78.38
X102.235Y-62.865
X102.235Y-70.485
X104.775Y-62.865
X104.775Y-70.485
X106.5Y-78.38
X106.68Y-73.66
X109.855Y-72.39
X109.855Y-75.565
X109.95Y-87.63
X112.395Y-81.28
X112.395Y-86.36
X114.855Y-72.39
X114.855Y-75.565
T4
X72.39Y-62.865
X72.39Y-65.405
X72.39Y-67.945
X72.39Y-70.485
T5
X82.55Y-49.53
X85.09Y-49.53
X87.63Y-49.53
T6
X96.52Y-49.53
X96.52Y-57.15
X105.41Y-49.53
X105.41Y-57.15
T7
X81.28Y-80.645
X81.28Y-85.725
X90.805Y-80.645
X90.805Y-85.725
T8
X79.375Y-94.615
X81.875Y-89.615
X84.375Y-94.615
T0
M30
