%FSLAX45Y45*%
G04 Gerber Fmt 4.5, Leading zero omitted, Abs format (unit mm)*
G04 Created by KiCad (PCBNEW 5.1.9+dfsg1-1) date 2022-09-10 10:36:59*
%MOMM*%
%LPD*%
G01*
G04 APERTURE LIST*
%TA.AperFunction,Profile*%
%ADD10C,0.150000*%
%TD*%
%ADD11C,0.200000*%
%ADD12C,0.300000*%
G04 APERTURE END LIST*
D10*
X6985000Y-4572000D02*
X6985000Y-9652000D01*
X11684000Y-4572000D02*
X11684000Y-9652000D01*
X11684000Y-4572000D02*
X6985000Y-4572000D01*
X6985000Y-9652000D02*
X11684000Y-9652000D01*
D11*
X7304500Y-4764500D02*
X7554500Y-5014500D01*
X7554500Y-4764500D02*
X7304500Y-5014500D01*
X9146000Y-9146000D02*
X9396000Y-9396000D01*
X9396000Y-9146000D02*
X9146000Y-9396000D01*
X11114500Y-4764500D02*
X11364500Y-5014500D01*
X11364500Y-4764500D02*
X11114500Y-5014500D01*
D12*
X7263928Y-10125214D02*
X7263928Y-9825214D01*
X7335357Y-9825214D01*
X7378214Y-9839500D01*
X7406786Y-9868072D01*
X7421071Y-9896643D01*
X7435357Y-9953786D01*
X7435357Y-9996643D01*
X7421071Y-10053786D01*
X7406786Y-10082357D01*
X7378214Y-10110929D01*
X7335357Y-10125214D01*
X7263928Y-10125214D01*
X7563928Y-10125214D02*
X7563928Y-9925214D01*
X7563928Y-9982357D02*
X7578214Y-9953786D01*
X7592500Y-9939500D01*
X7621071Y-9925214D01*
X7649643Y-9925214D01*
X7749643Y-10125214D02*
X7749643Y-9925214D01*
X7749643Y-9825214D02*
X7735357Y-9839500D01*
X7749643Y-9853786D01*
X7763928Y-9839500D01*
X7749643Y-9825214D01*
X7749643Y-9853786D01*
X7935357Y-10125214D02*
X7906786Y-10110929D01*
X7892500Y-10082357D01*
X7892500Y-9825214D01*
X8092500Y-10125214D02*
X8063928Y-10110929D01*
X8049643Y-10082357D01*
X8049643Y-9825214D01*
X8435357Y-10125214D02*
X8435357Y-9825214D01*
X8535357Y-10039500D01*
X8635357Y-9825214D01*
X8635357Y-10125214D01*
X8906786Y-10125214D02*
X8906786Y-9968072D01*
X8892500Y-9939500D01*
X8863928Y-9925214D01*
X8806786Y-9925214D01*
X8778214Y-9939500D01*
X8906786Y-10110929D02*
X8878214Y-10125214D01*
X8806786Y-10125214D01*
X8778214Y-10110929D01*
X8763928Y-10082357D01*
X8763928Y-10053786D01*
X8778214Y-10025214D01*
X8806786Y-10010929D01*
X8878214Y-10010929D01*
X8906786Y-9996643D01*
X9049643Y-9925214D02*
X9049643Y-10225214D01*
X9049643Y-9939500D02*
X9078214Y-9925214D01*
X9135357Y-9925214D01*
X9163928Y-9939500D01*
X9178214Y-9953786D01*
X9192500Y-9982357D01*
X9192500Y-10068072D01*
X9178214Y-10096643D01*
X9163928Y-10110929D01*
X9135357Y-10125214D01*
X9078214Y-10125214D01*
X9049643Y-10110929D01*
X9321071Y-10096643D02*
X9335357Y-10110929D01*
X9321071Y-10125214D01*
X9306786Y-10110929D01*
X9321071Y-10096643D01*
X9321071Y-10125214D01*
X9321071Y-9939500D02*
X9335357Y-9953786D01*
X9321071Y-9968072D01*
X9306786Y-9953786D01*
X9321071Y-9939500D01*
X9321071Y-9968072D01*
X6727500Y-10494500D02*
X6977500Y-10744500D01*
X6977500Y-10494500D02*
X6727500Y-10744500D01*
X7249643Y-10483786D02*
X7263928Y-10469500D01*
X7292500Y-10455214D01*
X7363928Y-10455214D01*
X7392500Y-10469500D01*
X7406786Y-10483786D01*
X7421071Y-10512357D01*
X7421071Y-10540929D01*
X7406786Y-10583786D01*
X7235357Y-10755214D01*
X7421071Y-10755214D01*
X7549643Y-10726643D02*
X7563928Y-10740929D01*
X7549643Y-10755214D01*
X7535357Y-10740929D01*
X7549643Y-10726643D01*
X7549643Y-10755214D01*
X7835357Y-10455214D02*
X7692500Y-10455214D01*
X7678214Y-10598072D01*
X7692500Y-10583786D01*
X7721071Y-10569500D01*
X7792500Y-10569500D01*
X7821071Y-10583786D01*
X7835357Y-10598072D01*
X7849643Y-10626643D01*
X7849643Y-10698072D01*
X7835357Y-10726643D01*
X7821071Y-10740929D01*
X7792500Y-10755214D01*
X7721071Y-10755214D01*
X7692500Y-10740929D01*
X7678214Y-10726643D01*
X8035357Y-10455214D02*
X8063928Y-10455214D01*
X8092500Y-10469500D01*
X8106786Y-10483786D01*
X8121071Y-10512357D01*
X8135357Y-10569500D01*
X8135357Y-10640929D01*
X8121071Y-10698072D01*
X8106786Y-10726643D01*
X8092500Y-10740929D01*
X8063928Y-10755214D01*
X8035357Y-10755214D01*
X8006786Y-10740929D01*
X7992500Y-10726643D01*
X7978214Y-10698072D01*
X7963928Y-10640929D01*
X7963928Y-10569500D01*
X7978214Y-10512357D01*
X7992500Y-10483786D01*
X8006786Y-10469500D01*
X8035357Y-10455214D01*
X8263928Y-10755214D02*
X8263928Y-10555214D01*
X8263928Y-10583786D02*
X8278214Y-10569500D01*
X8306786Y-10555214D01*
X8349643Y-10555214D01*
X8378214Y-10569500D01*
X8392500Y-10598072D01*
X8392500Y-10755214D01*
X8392500Y-10598072D02*
X8406786Y-10569500D01*
X8435357Y-10555214D01*
X8478214Y-10555214D01*
X8506786Y-10569500D01*
X8521071Y-10598072D01*
X8521071Y-10755214D01*
X8663928Y-10755214D02*
X8663928Y-10555214D01*
X8663928Y-10583786D02*
X8678214Y-10569500D01*
X8706786Y-10555214D01*
X8749643Y-10555214D01*
X8778214Y-10569500D01*
X8792500Y-10598072D01*
X8792500Y-10755214D01*
X8792500Y-10598072D02*
X8806786Y-10569500D01*
X8835357Y-10555214D01*
X8878214Y-10555214D01*
X8906786Y-10569500D01*
X8921071Y-10598072D01*
X8921071Y-10755214D01*
X9506786Y-10440929D02*
X9249643Y-10826643D01*
X9892500Y-10455214D02*
X9921071Y-10455214D01*
X9949643Y-10469500D01*
X9963928Y-10483786D01*
X9978214Y-10512357D01*
X9992500Y-10569500D01*
X9992500Y-10640929D01*
X9978214Y-10698072D01*
X9963928Y-10726643D01*
X9949643Y-10740929D01*
X9921071Y-10755214D01*
X9892500Y-10755214D01*
X9863928Y-10740929D01*
X9849643Y-10726643D01*
X9835357Y-10698072D01*
X9821071Y-10640929D01*
X9821071Y-10569500D01*
X9835357Y-10512357D01*
X9849643Y-10483786D01*
X9863928Y-10469500D01*
X9892500Y-10455214D01*
X10121071Y-10726643D02*
X10135357Y-10740929D01*
X10121071Y-10755214D01*
X10106786Y-10740929D01*
X10121071Y-10726643D01*
X10121071Y-10755214D01*
X10321071Y-10455214D02*
X10349643Y-10455214D01*
X10378214Y-10469500D01*
X10392500Y-10483786D01*
X10406786Y-10512357D01*
X10421071Y-10569500D01*
X10421071Y-10640929D01*
X10406786Y-10698072D01*
X10392500Y-10726643D01*
X10378214Y-10740929D01*
X10349643Y-10755214D01*
X10321071Y-10755214D01*
X10292500Y-10740929D01*
X10278214Y-10726643D01*
X10263928Y-10698072D01*
X10249643Y-10640929D01*
X10249643Y-10569500D01*
X10263928Y-10512357D01*
X10278214Y-10483786D01*
X10292500Y-10469500D01*
X10321071Y-10455214D01*
X10563928Y-10755214D02*
X10621071Y-10755214D01*
X10649643Y-10740929D01*
X10663928Y-10726643D01*
X10692500Y-10683786D01*
X10706786Y-10626643D01*
X10706786Y-10512357D01*
X10692500Y-10483786D01*
X10678214Y-10469500D01*
X10649643Y-10455214D01*
X10592500Y-10455214D01*
X10563928Y-10469500D01*
X10549643Y-10483786D01*
X10535357Y-10512357D01*
X10535357Y-10583786D01*
X10549643Y-10612357D01*
X10563928Y-10626643D01*
X10592500Y-10640929D01*
X10649643Y-10640929D01*
X10678214Y-10626643D01*
X10692500Y-10612357D01*
X10706786Y-10583786D01*
X10878214Y-10583786D02*
X10849643Y-10569500D01*
X10835357Y-10555214D01*
X10821071Y-10526643D01*
X10821071Y-10512357D01*
X10835357Y-10483786D01*
X10849643Y-10469500D01*
X10878214Y-10455214D01*
X10935357Y-10455214D01*
X10963928Y-10469500D01*
X10978214Y-10483786D01*
X10992500Y-10512357D01*
X10992500Y-10526643D01*
X10978214Y-10555214D01*
X10963928Y-10569500D01*
X10935357Y-10583786D01*
X10878214Y-10583786D01*
X10849643Y-10598072D01*
X10835357Y-10612357D01*
X10821071Y-10640929D01*
X10821071Y-10698072D01*
X10835357Y-10726643D01*
X10849643Y-10740929D01*
X10878214Y-10755214D01*
X10935357Y-10755214D01*
X10963928Y-10740929D01*
X10978214Y-10726643D01*
X10992500Y-10698072D01*
X10992500Y-10640929D01*
X10978214Y-10612357D01*
X10963928Y-10598072D01*
X10935357Y-10583786D01*
X11106786Y-10455214D02*
X11106786Y-10512357D01*
X11221071Y-10455214D02*
X11221071Y-10512357D01*
X11663928Y-10869500D02*
X11649643Y-10855214D01*
X11621071Y-10812357D01*
X11606786Y-10783786D01*
X11592500Y-10740929D01*
X11578214Y-10669500D01*
X11578214Y-10612357D01*
X11592500Y-10540929D01*
X11606786Y-10498072D01*
X11621071Y-10469500D01*
X11649643Y-10426643D01*
X11663928Y-10412357D01*
X11749643Y-10455214D02*
X11935357Y-10455214D01*
X11835357Y-10569500D01*
X11878214Y-10569500D01*
X11906786Y-10583786D01*
X11921071Y-10598072D01*
X11935357Y-10626643D01*
X11935357Y-10698072D01*
X11921071Y-10726643D01*
X11906786Y-10740929D01*
X11878214Y-10755214D01*
X11792500Y-10755214D01*
X11763928Y-10740929D01*
X11749643Y-10726643D01*
X12292500Y-10755214D02*
X12292500Y-10455214D01*
X12421071Y-10755214D02*
X12421071Y-10598072D01*
X12406786Y-10569500D01*
X12378214Y-10555214D01*
X12335357Y-10555214D01*
X12306786Y-10569500D01*
X12292500Y-10583786D01*
X12606786Y-10755214D02*
X12578214Y-10740929D01*
X12563928Y-10726643D01*
X12549643Y-10698072D01*
X12549643Y-10612357D01*
X12563928Y-10583786D01*
X12578214Y-10569500D01*
X12606786Y-10555214D01*
X12649643Y-10555214D01*
X12678214Y-10569500D01*
X12692500Y-10583786D01*
X12706786Y-10612357D01*
X12706786Y-10698072D01*
X12692500Y-10726643D01*
X12678214Y-10740929D01*
X12649643Y-10755214D01*
X12606786Y-10755214D01*
X12878214Y-10755214D02*
X12849643Y-10740929D01*
X12835357Y-10712357D01*
X12835357Y-10455214D01*
X13106786Y-10740929D02*
X13078214Y-10755214D01*
X13021071Y-10755214D01*
X12992500Y-10740929D01*
X12978214Y-10712357D01*
X12978214Y-10598072D01*
X12992500Y-10569500D01*
X13021071Y-10555214D01*
X13078214Y-10555214D01*
X13106786Y-10569500D01*
X13121071Y-10598072D01*
X13121071Y-10626643D01*
X12978214Y-10655214D01*
X13235357Y-10740929D02*
X13263928Y-10755214D01*
X13321071Y-10755214D01*
X13349643Y-10740929D01*
X13363928Y-10712357D01*
X13363928Y-10698072D01*
X13349643Y-10669500D01*
X13321071Y-10655214D01*
X13278214Y-10655214D01*
X13249643Y-10640929D01*
X13235357Y-10612357D01*
X13235357Y-10598072D01*
X13249643Y-10569500D01*
X13278214Y-10555214D01*
X13321071Y-10555214D01*
X13349643Y-10569500D01*
X13463928Y-10869500D02*
X13478214Y-10855214D01*
X13506786Y-10812357D01*
X13521071Y-10783786D01*
X13535357Y-10740929D01*
X13549643Y-10669500D01*
X13549643Y-10612357D01*
X13535357Y-10540929D01*
X13521071Y-10498072D01*
X13506786Y-10469500D01*
X13478214Y-10426643D01*
X13463928Y-10412357D01*
X14006786Y-10869500D02*
X13992500Y-10855214D01*
X13963928Y-10812357D01*
X13949643Y-10783786D01*
X13935357Y-10740929D01*
X13921071Y-10669500D01*
X13921071Y-10612357D01*
X13935357Y-10540929D01*
X13949643Y-10498072D01*
X13963928Y-10469500D01*
X13992500Y-10426643D01*
X14006786Y-10412357D01*
X14121071Y-10555214D02*
X14121071Y-10755214D01*
X14121071Y-10583786D02*
X14135357Y-10569500D01*
X14163928Y-10555214D01*
X14206786Y-10555214D01*
X14235357Y-10569500D01*
X14249643Y-10598072D01*
X14249643Y-10755214D01*
X14435357Y-10755214D02*
X14406786Y-10740929D01*
X14392500Y-10726643D01*
X14378214Y-10698072D01*
X14378214Y-10612357D01*
X14392500Y-10583786D01*
X14406786Y-10569500D01*
X14435357Y-10555214D01*
X14478214Y-10555214D01*
X14506786Y-10569500D01*
X14521071Y-10583786D01*
X14535357Y-10612357D01*
X14535357Y-10698072D01*
X14521071Y-10726643D01*
X14506786Y-10740929D01*
X14478214Y-10755214D01*
X14435357Y-10755214D01*
X14621071Y-10555214D02*
X14735357Y-10555214D01*
X14663928Y-10455214D02*
X14663928Y-10712357D01*
X14678214Y-10740929D01*
X14706786Y-10755214D01*
X14735357Y-10755214D01*
X15063928Y-10555214D02*
X15063928Y-10855214D01*
X15063928Y-10569500D02*
X15092500Y-10555214D01*
X15149643Y-10555214D01*
X15178214Y-10569500D01*
X15192500Y-10583786D01*
X15206786Y-10612357D01*
X15206786Y-10698072D01*
X15192500Y-10726643D01*
X15178214Y-10740929D01*
X15149643Y-10755214D01*
X15092500Y-10755214D01*
X15063928Y-10740929D01*
X15378214Y-10755214D02*
X15349643Y-10740929D01*
X15335357Y-10712357D01*
X15335357Y-10455214D01*
X15621071Y-10755214D02*
X15621071Y-10598072D01*
X15606786Y-10569500D01*
X15578214Y-10555214D01*
X15521071Y-10555214D01*
X15492500Y-10569500D01*
X15621071Y-10740929D02*
X15592500Y-10755214D01*
X15521071Y-10755214D01*
X15492500Y-10740929D01*
X15478214Y-10712357D01*
X15478214Y-10683786D01*
X15492500Y-10655214D01*
X15521071Y-10640929D01*
X15592500Y-10640929D01*
X15621071Y-10626643D01*
X15721071Y-10555214D02*
X15835357Y-10555214D01*
X15763928Y-10455214D02*
X15763928Y-10712357D01*
X15778214Y-10740929D01*
X15806786Y-10755214D01*
X15835357Y-10755214D01*
X16049643Y-10740929D02*
X16021071Y-10755214D01*
X15963928Y-10755214D01*
X15935357Y-10740929D01*
X15921071Y-10712357D01*
X15921071Y-10598072D01*
X15935357Y-10569500D01*
X15963928Y-10555214D01*
X16021071Y-10555214D01*
X16049643Y-10569500D01*
X16063928Y-10598072D01*
X16063928Y-10626643D01*
X15921071Y-10655214D01*
X16321071Y-10755214D02*
X16321071Y-10455214D01*
X16321071Y-10740929D02*
X16292500Y-10755214D01*
X16235357Y-10755214D01*
X16206786Y-10740929D01*
X16192500Y-10726643D01*
X16178214Y-10698072D01*
X16178214Y-10612357D01*
X16192500Y-10583786D01*
X16206786Y-10569500D01*
X16235357Y-10555214D01*
X16292500Y-10555214D01*
X16321071Y-10569500D01*
X16435357Y-10869500D02*
X16449643Y-10855214D01*
X16478214Y-10812357D01*
X16492500Y-10783786D01*
X16506786Y-10740929D01*
X16521071Y-10669500D01*
X16521071Y-10612357D01*
X16506786Y-10540929D01*
X16492500Y-10498072D01*
X16478214Y-10469500D01*
X16449643Y-10426643D01*
X16435357Y-10412357D01*
M02*
