G04 #@! TF.GenerationSoftware,KiCad,Pcbnew,5.1.9+dfsg1-1*
G04 #@! TF.CreationDate,2022-09-10T10:34:51-05:00*
G04 #@! TF.ProjectId,RockSolid,526f636b-536f-46c6-9964-2e6b69636164,rev?*
G04 #@! TF.SameCoordinates,Original*
G04 #@! TF.FileFunction,Soldermask,Top*
G04 #@! TF.FilePolarity,Negative*
%FSLAX46Y46*%
G04 Gerber Fmt 4.6, Leading zero omitted, Abs format (unit mm)*
G04 Created by KiCad (PCBNEW 5.1.9+dfsg1-1) date 2022-09-10 10:34:51*
%MOMM*%
%LPD*%
G01*
G04 APERTURE LIST*
%ADD10O,1.702000X1.702000*%
%ADD11C,1.702000*%
%ADD12O,2.502000X2.502000*%
%ADD13C,2.502000*%
%ADD14C,2.602000*%
%ADD15C,1.602000*%
%ADD16C,1.626000*%
%ADD17O,2.007000X2.102000*%
%ADD18O,1.152000X1.602000*%
%ADD19C,2.442000*%
%ADD20O,1.802000X1.802000*%
%ADD21C,0.127000*%
G04 APERTURE END LIST*
D10*
X72390000Y-83820000D03*
D11*
X72390000Y-76200000D03*
X74390000Y-54610000D03*
G36*
G01*
X71539000Y-55410000D02*
X71539000Y-53810000D01*
G75*
G02*
X71590000Y-53759000I51000J0D01*
G01*
X73190000Y-53759000D01*
G75*
G02*
X73241000Y-53810000I0J-51000D01*
G01*
X73241000Y-55410000D01*
G75*
G02*
X73190000Y-55461000I-51000J0D01*
G01*
X71590000Y-55461000D01*
G75*
G02*
X71539000Y-55410000I0J51000D01*
G01*
G37*
D10*
X72390000Y-94615000D03*
D11*
X72390000Y-86995000D03*
D12*
X96520000Y-57150000D03*
D13*
X96520000Y-49530000D03*
D12*
X105410000Y-57150000D03*
D13*
X105410000Y-49530000D03*
D14*
X92710000Y-92710000D03*
X112395000Y-48895000D03*
X74295000Y-48895000D03*
D10*
X106680000Y-73660000D03*
D11*
X99060000Y-73660000D03*
X96520000Y-73660000D03*
D10*
X88900000Y-73660000D03*
D11*
X76835000Y-60405000D03*
X76835000Y-65405000D03*
X80645000Y-65405000D03*
X80645000Y-60405000D03*
X85725000Y-67865000D03*
X85725000Y-62865000D03*
X109855000Y-75565000D03*
X114855000Y-75565000D03*
X90885000Y-76835000D03*
X95885000Y-76835000D03*
X83185000Y-76835000D03*
X88185000Y-76835000D03*
X109855000Y-72390000D03*
X114855000Y-72390000D03*
D15*
X101600000Y-78380000D03*
X106500000Y-78380000D03*
G36*
G01*
X98499000Y-94380000D02*
X98499000Y-80880000D01*
G75*
G02*
X98550000Y-80829000I51000J0D01*
G01*
X109550000Y-80829000D01*
G75*
G02*
X109601000Y-80880000I0J-51000D01*
G01*
X109601000Y-94380000D01*
G75*
G02*
X109550000Y-94431000I-51000J0D01*
G01*
X98550000Y-94431000D01*
G75*
G02*
X98499000Y-94380000I0J51000D01*
G01*
G37*
G36*
G01*
X97499000Y-88230001D02*
X97499000Y-87029999D01*
G75*
G02*
X97549999Y-86979000I50999J0D01*
G01*
X98750001Y-86979000D01*
G75*
G02*
X98801000Y-87029999I0J-50999D01*
G01*
X98801000Y-88230001D01*
G75*
G02*
X98750001Y-88281000I-50999J0D01*
G01*
X97549999Y-88281000D01*
G75*
G02*
X97499000Y-88230001I0J50999D01*
G01*
G37*
G36*
G01*
X109299000Y-88230001D02*
X109299000Y-87029999D01*
G75*
G02*
X109349999Y-86979000I50999J0D01*
G01*
X110550001Y-86979000D01*
G75*
G02*
X110601000Y-87029999I0J-50999D01*
G01*
X110601000Y-88230001D01*
G75*
G02*
X110550001Y-88281000I-50999J0D01*
G01*
X109349999Y-88281000D01*
G75*
G02*
X109299000Y-88230001I0J50999D01*
G01*
G37*
D16*
X90805000Y-85725000D03*
X90805000Y-80645000D03*
X81280000Y-80645000D03*
X81280000Y-85725000D03*
G36*
G01*
X90335000Y-71336000D02*
X88735000Y-71336000D01*
G75*
G02*
X88684000Y-71285000I0J51000D01*
G01*
X88684000Y-69685000D01*
G75*
G02*
X88735000Y-69634000I51000J0D01*
G01*
X90335000Y-69634000D01*
G75*
G02*
X90386000Y-69685000I0J-51000D01*
G01*
X90386000Y-71285000D01*
G75*
G02*
X90335000Y-71336000I-51000J0D01*
G01*
G37*
D10*
X104775000Y-62865000D03*
X92075000Y-70485000D03*
X102235000Y-62865000D03*
X94615000Y-70485000D03*
X99695000Y-62865000D03*
X97155000Y-70485000D03*
X97155000Y-62865000D03*
X99695000Y-70485000D03*
X94615000Y-62865000D03*
X102235000Y-70485000D03*
X92075000Y-62865000D03*
X104775000Y-70485000D03*
X89535000Y-62865000D03*
G36*
G01*
X81546500Y-50530000D02*
X81546500Y-48530000D01*
G75*
G02*
X81597500Y-48479000I51000J0D01*
G01*
X83502500Y-48479000D01*
G75*
G02*
X83553500Y-48530000I0J-51000D01*
G01*
X83553500Y-50530000D01*
G75*
G02*
X83502500Y-50581000I-51000J0D01*
G01*
X81597500Y-50581000D01*
G75*
G02*
X81546500Y-50530000I0J51000D01*
G01*
G37*
D17*
X85090000Y-49530000D03*
X87630000Y-49530000D03*
D18*
X79375000Y-69850000D03*
X78105000Y-69850000D03*
G36*
G01*
X81221000Y-69100000D02*
X81221000Y-70600000D01*
G75*
G02*
X81170000Y-70651000I-51000J0D01*
G01*
X80120000Y-70651000D01*
G75*
G02*
X80069000Y-70600000I0J51000D01*
G01*
X80069000Y-69100000D01*
G75*
G02*
X80120000Y-69049000I51000J0D01*
G01*
X81170000Y-69049000D01*
G75*
G02*
X81221000Y-69100000I0J-51000D01*
G01*
G37*
D19*
X84375000Y-94615000D03*
X81875000Y-89615000D03*
X79375000Y-94615000D03*
D11*
X112395000Y-86360000D03*
D10*
X112395000Y-81280000D03*
G36*
G01*
X71489000Y-63715000D02*
X71489000Y-62015000D01*
G75*
G02*
X71540000Y-61964000I51000J0D01*
G01*
X73240000Y-61964000D01*
G75*
G02*
X73291000Y-62015000I0J-51000D01*
G01*
X73291000Y-63715000D01*
G75*
G02*
X73240000Y-63766000I-51000J0D01*
G01*
X71540000Y-63766000D01*
G75*
G02*
X71489000Y-63715000I0J51000D01*
G01*
G37*
D20*
X72390000Y-65405000D03*
X72390000Y-67945000D03*
X72390000Y-70485000D03*
D21*
G36*
X80070084Y-69216979D02*
G01*
X80071000Y-69218660D01*
X80071000Y-70481340D01*
X80070000Y-70483072D01*
X80068000Y-70483072D01*
X80067010Y-70481536D01*
X80064628Y-70457349D01*
X80057628Y-70434274D01*
X80046263Y-70413010D01*
X80030968Y-70394373D01*
X80012331Y-70379078D01*
X79991067Y-70367713D01*
X79967992Y-70360713D01*
X79944001Y-70358350D01*
X79920010Y-70360713D01*
X79896935Y-70367713D01*
X79875715Y-70379055D01*
X79851757Y-70400769D01*
X79849802Y-70401191D01*
X79848459Y-70399709D01*
X79848868Y-70398018D01*
X79852255Y-70393892D01*
X79905298Y-70294657D01*
X79937962Y-70186977D01*
X79949000Y-70074906D01*
X79949000Y-69625095D01*
X79937962Y-69513023D01*
X79905298Y-69405343D01*
X79852255Y-69306108D01*
X79850170Y-69303568D01*
X79849844Y-69301594D01*
X79851390Y-69300326D01*
X79853130Y-69300885D01*
X79865976Y-69313731D01*
X79886024Y-69327126D01*
X79908297Y-69336353D01*
X79931948Y-69341057D01*
X79956054Y-69341057D01*
X79979704Y-69336353D01*
X80001978Y-69327126D01*
X80022025Y-69313732D01*
X80039072Y-69296685D01*
X80052467Y-69276637D01*
X80061694Y-69254364D01*
X80066407Y-69230667D01*
X80067002Y-69218562D01*
X80068086Y-69216881D01*
X80070084Y-69216979D01*
G37*
G36*
X78634836Y-69396013D02*
G01*
X78644929Y-69411118D01*
X78661976Y-69428165D01*
X78682024Y-69441560D01*
X78704298Y-69450786D01*
X78727948Y-69455490D01*
X78752054Y-69455490D01*
X78775704Y-69450785D01*
X78797978Y-69441559D01*
X78818025Y-69428164D01*
X78835072Y-69411117D01*
X78845164Y-69396013D01*
X78846958Y-69395128D01*
X78848621Y-69396239D01*
X78848591Y-69398067D01*
X78844702Y-69405343D01*
X78812038Y-69513023D01*
X78801000Y-69625094D01*
X78801000Y-70074906D01*
X78812038Y-70186976D01*
X78844702Y-70294656D01*
X78848591Y-70301932D01*
X78848525Y-70303931D01*
X78846762Y-70304874D01*
X78845164Y-70303986D01*
X78835071Y-70288881D01*
X78818024Y-70271834D01*
X78797976Y-70258439D01*
X78775702Y-70249213D01*
X78752052Y-70244509D01*
X78727946Y-70244509D01*
X78704296Y-70249214D01*
X78682022Y-70258440D01*
X78661975Y-70271835D01*
X78644928Y-70288882D01*
X78634839Y-70303982D01*
X78633045Y-70304867D01*
X78631382Y-70303756D01*
X78631412Y-70301928D01*
X78635298Y-70294657D01*
X78667962Y-70186977D01*
X78679000Y-70074906D01*
X78679000Y-69625095D01*
X78667962Y-69513023D01*
X78635298Y-69405343D01*
X78631409Y-69398067D01*
X78631475Y-69396068D01*
X78633238Y-69395125D01*
X78634836Y-69396013D01*
G37*
M02*
