G04 #@! TF.GenerationSoftware,KiCad,Pcbnew,5.1.9+dfsg1-1*
G04 #@! TF.CreationDate,2022-09-10T10:34:51-05:00*
G04 #@! TF.ProjectId,RockSolid,526f636b-536f-46c6-9964-2e6b69636164,rev?*
G04 #@! TF.SameCoordinates,Original*
G04 #@! TF.FileFunction,Legend,Bot*
G04 #@! TF.FilePolarity,Positive*
%FSLAX46Y46*%
G04 Gerber Fmt 4.6, Leading zero omitted, Abs format (unit mm)*
G04 Created by KiCad (PCBNEW 5.1.9+dfsg1-1) date 2022-09-10 10:34:51*
%MOMM*%
%LPD*%
G01*
G04 APERTURE LIST*
%ADD10C,0.300000*%
%ADD11O,1.702000X1.702000*%
%ADD12C,1.702000*%
%ADD13O,2.502000X2.502000*%
%ADD14C,2.502000*%
%ADD15C,2.602000*%
%ADD16C,1.602000*%
%ADD17C,1.626000*%
%ADD18O,2.007000X2.102000*%
%ADD19O,1.152000X1.602000*%
%ADD20C,2.442000*%
%ADD21O,1.802000X1.802000*%
G04 APERTURE END LIST*
D10*
X103714285Y-54008571D02*
X104214285Y-53294285D01*
X104571428Y-54008571D02*
X104571428Y-52508571D01*
X104000000Y-52508571D01*
X103857142Y-52580000D01*
X103785714Y-52651428D01*
X103714285Y-52794285D01*
X103714285Y-53008571D01*
X103785714Y-53151428D01*
X103857142Y-53222857D01*
X104000000Y-53294285D01*
X104571428Y-53294285D01*
X102857142Y-54008571D02*
X103000000Y-53937142D01*
X103071428Y-53865714D01*
X103142857Y-53722857D01*
X103142857Y-53294285D01*
X103071428Y-53151428D01*
X103000000Y-53080000D01*
X102857142Y-53008571D01*
X102642857Y-53008571D01*
X102500000Y-53080000D01*
X102428571Y-53151428D01*
X102357142Y-53294285D01*
X102357142Y-53722857D01*
X102428571Y-53865714D01*
X102500000Y-53937142D01*
X102642857Y-54008571D01*
X102857142Y-54008571D01*
X101071428Y-53937142D02*
X101214285Y-54008571D01*
X101500000Y-54008571D01*
X101642857Y-53937142D01*
X101714285Y-53865714D01*
X101785714Y-53722857D01*
X101785714Y-53294285D01*
X101714285Y-53151428D01*
X101642857Y-53080000D01*
X101500000Y-53008571D01*
X101214285Y-53008571D01*
X101071428Y-53080000D01*
X100428571Y-54008571D02*
X100428571Y-52508571D01*
X100285714Y-53437142D02*
X99857142Y-54008571D01*
X99857142Y-53008571D02*
X100428571Y-53580000D01*
X98142857Y-53937142D02*
X97928571Y-54008571D01*
X97571428Y-54008571D01*
X97428571Y-53937142D01*
X97357142Y-53865714D01*
X97285714Y-53722857D01*
X97285714Y-53580000D01*
X97357142Y-53437142D01*
X97428571Y-53365714D01*
X97571428Y-53294285D01*
X97857142Y-53222857D01*
X98000000Y-53151428D01*
X98071428Y-53080000D01*
X98142857Y-52937142D01*
X98142857Y-52794285D01*
X98071428Y-52651428D01*
X98000000Y-52580000D01*
X97857142Y-52508571D01*
X97500000Y-52508571D01*
X97285714Y-52580000D01*
X96428571Y-54008571D02*
X96571428Y-53937142D01*
X96642857Y-53865714D01*
X96714285Y-53722857D01*
X96714285Y-53294285D01*
X96642857Y-53151428D01*
X96571428Y-53080000D01*
X96428571Y-53008571D01*
X96214285Y-53008571D01*
X96071428Y-53080000D01*
X96000000Y-53151428D01*
X95928571Y-53294285D01*
X95928571Y-53722857D01*
X96000000Y-53865714D01*
X96071428Y-53937142D01*
X96214285Y-54008571D01*
X96428571Y-54008571D01*
X95071428Y-54008571D02*
X95214285Y-53937142D01*
X95285714Y-53794285D01*
X95285714Y-52508571D01*
X94500000Y-54008571D02*
X94500000Y-53008571D01*
X94500000Y-52508571D02*
X94571428Y-52580000D01*
X94500000Y-52651428D01*
X94428571Y-52580000D01*
X94500000Y-52508571D01*
X94500000Y-52651428D01*
X93142857Y-54008571D02*
X93142857Y-52508571D01*
X93142857Y-53937142D02*
X93285714Y-54008571D01*
X93571428Y-54008571D01*
X93714285Y-53937142D01*
X93785714Y-53865714D01*
X93857142Y-53722857D01*
X93857142Y-53294285D01*
X93785714Y-53151428D01*
X93714285Y-53080000D01*
X93571428Y-53008571D01*
X93285714Y-53008571D01*
X93142857Y-53080000D01*
X91000000Y-52508571D02*
X90714285Y-52508571D01*
X90571428Y-52580000D01*
X90428571Y-52722857D01*
X90357142Y-53008571D01*
X90357142Y-53508571D01*
X90428571Y-53794285D01*
X90571428Y-53937142D01*
X90714285Y-54008571D01*
X91000000Y-54008571D01*
X91142857Y-53937142D01*
X91285714Y-53794285D01*
X91357142Y-53508571D01*
X91357142Y-53008571D01*
X91285714Y-52722857D01*
X91142857Y-52580000D01*
X91000000Y-52508571D01*
X88857142Y-53865714D02*
X88928571Y-53937142D01*
X89142857Y-54008571D01*
X89285714Y-54008571D01*
X89500000Y-53937142D01*
X89642857Y-53794285D01*
X89714285Y-53651428D01*
X89785714Y-53365714D01*
X89785714Y-53151428D01*
X89714285Y-52865714D01*
X89642857Y-52722857D01*
X89500000Y-52580000D01*
X89285714Y-52508571D01*
X89142857Y-52508571D01*
X88928571Y-52580000D01*
X88857142Y-52651428D01*
X88357142Y-52508571D02*
X87357142Y-54008571D01*
X87357142Y-52508571D02*
X88357142Y-54008571D01*
X86500000Y-52508571D02*
X86214285Y-52508571D01*
X86071428Y-52580000D01*
X85928571Y-52722857D01*
X85857142Y-53008571D01*
X85857142Y-53508571D01*
X85928571Y-53794285D01*
X86071428Y-53937142D01*
X86214285Y-54008571D01*
X86500000Y-54008571D01*
X86642857Y-53937142D01*
X86785714Y-53794285D01*
X86857142Y-53508571D01*
X86857142Y-53008571D01*
X86785714Y-52722857D01*
X86642857Y-52580000D01*
X86500000Y-52508571D01*
X106035714Y-57130000D02*
X106107142Y-57058571D01*
X106250000Y-56844285D01*
X106321428Y-56701428D01*
X106392857Y-56487142D01*
X106464285Y-56130000D01*
X106464285Y-55844285D01*
X106392857Y-55487142D01*
X106321428Y-55272857D01*
X106250000Y-55130000D01*
X106107142Y-54915714D01*
X106035714Y-54844285D01*
X104821428Y-56487142D02*
X104964285Y-56558571D01*
X105250000Y-56558571D01*
X105392857Y-56487142D01*
X105464285Y-56415714D01*
X105535714Y-56272857D01*
X105535714Y-55844285D01*
X105464285Y-55701428D01*
X105392857Y-55630000D01*
X105250000Y-55558571D01*
X104964285Y-55558571D01*
X104821428Y-55630000D01*
X104321428Y-57130000D02*
X104250000Y-57058571D01*
X104107142Y-56844285D01*
X104035714Y-56701428D01*
X103964285Y-56487142D01*
X103892857Y-56130000D01*
X103892857Y-55844285D01*
X103964285Y-55487142D01*
X104035714Y-55272857D01*
X104107142Y-55130000D01*
X104250000Y-54915714D01*
X104321428Y-54844285D01*
X102107142Y-55201428D02*
X102035714Y-55130000D01*
X101892857Y-55058571D01*
X101535714Y-55058571D01*
X101392857Y-55130000D01*
X101321428Y-55201428D01*
X101250000Y-55344285D01*
X101250000Y-55487142D01*
X101321428Y-55701428D01*
X102178571Y-56558571D01*
X101250000Y-56558571D01*
X100321428Y-55058571D02*
X100178571Y-55058571D01*
X100035714Y-55130000D01*
X99964285Y-55201428D01*
X99892857Y-55344285D01*
X99821428Y-55630000D01*
X99821428Y-55987142D01*
X99892857Y-56272857D01*
X99964285Y-56415714D01*
X100035714Y-56487142D01*
X100178571Y-56558571D01*
X100321428Y-56558571D01*
X100464285Y-56487142D01*
X100535714Y-56415714D01*
X100607142Y-56272857D01*
X100678571Y-55987142D01*
X100678571Y-55630000D01*
X100607142Y-55344285D01*
X100535714Y-55201428D01*
X100464285Y-55130000D01*
X100321428Y-55058571D01*
X99250000Y-55201428D02*
X99178571Y-55130000D01*
X99035714Y-55058571D01*
X98678571Y-55058571D01*
X98535714Y-55130000D01*
X98464285Y-55201428D01*
X98392857Y-55344285D01*
X98392857Y-55487142D01*
X98464285Y-55701428D01*
X99321428Y-56558571D01*
X98392857Y-56558571D01*
X96964285Y-56558571D02*
X97821428Y-56558571D01*
X97392857Y-56558571D02*
X97392857Y-55058571D01*
X97535714Y-55272857D01*
X97678571Y-55415714D01*
X97821428Y-55487142D01*
X95321428Y-55058571D02*
X94964285Y-56558571D01*
X94678571Y-55487142D01*
X94392857Y-56558571D01*
X94035714Y-55058571D01*
X93464285Y-56558571D02*
X93464285Y-55558571D01*
X93464285Y-55058571D02*
X93535714Y-55130000D01*
X93464285Y-55201428D01*
X93392857Y-55130000D01*
X93464285Y-55058571D01*
X93464285Y-55201428D01*
X92535714Y-56558571D02*
X92678571Y-56487142D01*
X92750000Y-56344285D01*
X92750000Y-55058571D01*
X91750000Y-56558571D02*
X91892857Y-56487142D01*
X91964285Y-56344285D01*
X91964285Y-55058571D01*
X89178571Y-56415714D02*
X89250000Y-56487142D01*
X89464285Y-56558571D01*
X89607142Y-56558571D01*
X89821428Y-56487142D01*
X89964285Y-56344285D01*
X90035714Y-56201428D01*
X90107142Y-55915714D01*
X90107142Y-55701428D01*
X90035714Y-55415714D01*
X89964285Y-55272857D01*
X89821428Y-55130000D01*
X89607142Y-55058571D01*
X89464285Y-55058571D01*
X89250000Y-55130000D01*
X89178571Y-55201428D01*
X88321428Y-56558571D02*
X88464285Y-56487142D01*
X88535714Y-56415714D01*
X88607142Y-56272857D01*
X88607142Y-55844285D01*
X88535714Y-55701428D01*
X88464285Y-55630000D01*
X88321428Y-55558571D01*
X88107142Y-55558571D01*
X87964285Y-55630000D01*
X87892857Y-55701428D01*
X87821428Y-55844285D01*
X87821428Y-56272857D01*
X87892857Y-56415714D01*
X87964285Y-56487142D01*
X88107142Y-56558571D01*
X88321428Y-56558571D01*
X86964285Y-56558571D02*
X87107142Y-56487142D01*
X87178571Y-56415714D01*
X87250000Y-56272857D01*
X87250000Y-55844285D01*
X87178571Y-55701428D01*
X87107142Y-55630000D01*
X86964285Y-55558571D01*
X86750000Y-55558571D01*
X86607142Y-55630000D01*
X86535714Y-55701428D01*
X86464285Y-55844285D01*
X86464285Y-56272857D01*
X86535714Y-56415714D01*
X86607142Y-56487142D01*
X86750000Y-56558571D01*
X86964285Y-56558571D01*
X85821428Y-56558571D02*
X85821428Y-55058571D01*
X85678571Y-55987142D02*
X85250000Y-56558571D01*
X85250000Y-55558571D02*
X85821428Y-56130000D01*
X84035714Y-56487142D02*
X84178571Y-56558571D01*
X84464285Y-56558571D01*
X84607142Y-56487142D01*
X84678571Y-56344285D01*
X84678571Y-55772857D01*
X84607142Y-55630000D01*
X84464285Y-55558571D01*
X84178571Y-55558571D01*
X84035714Y-55630000D01*
X83964285Y-55772857D01*
X83964285Y-55915714D01*
X84678571Y-56058571D01*
X109321428Y-59037142D02*
X109178571Y-59108571D01*
X108892857Y-59108571D01*
X108750000Y-59037142D01*
X108678571Y-58894285D01*
X108678571Y-58822857D01*
X108750000Y-58680000D01*
X108892857Y-58608571D01*
X109107142Y-58608571D01*
X109250000Y-58537142D01*
X109321428Y-58394285D01*
X109321428Y-58322857D01*
X109250000Y-58180000D01*
X109107142Y-58108571D01*
X108892857Y-58108571D01*
X108750000Y-58180000D01*
X108035714Y-59108571D02*
X108035714Y-58108571D01*
X108035714Y-58251428D02*
X107964285Y-58180000D01*
X107821428Y-58108571D01*
X107607142Y-58108571D01*
X107464285Y-58180000D01*
X107392857Y-58322857D01*
X107392857Y-59108571D01*
X107392857Y-58322857D02*
X107321428Y-58180000D01*
X107178571Y-58108571D01*
X106964285Y-58108571D01*
X106821428Y-58180000D01*
X106750000Y-58322857D01*
X106750000Y-59108571D01*
X105392857Y-59108571D02*
X105392857Y-58322857D01*
X105464285Y-58180000D01*
X105607142Y-58108571D01*
X105892857Y-58108571D01*
X106035714Y-58180000D01*
X105392857Y-59037142D02*
X105535714Y-59108571D01*
X105892857Y-59108571D01*
X106035714Y-59037142D01*
X106107142Y-58894285D01*
X106107142Y-58751428D01*
X106035714Y-58608571D01*
X105892857Y-58537142D01*
X105535714Y-58537142D01*
X105392857Y-58465714D01*
X104464285Y-59108571D02*
X104607142Y-59037142D01*
X104678571Y-58894285D01*
X104678571Y-57608571D01*
X103678571Y-59108571D02*
X103821428Y-59037142D01*
X103892857Y-58894285D01*
X103892857Y-57608571D01*
X103321428Y-58108571D02*
X102750000Y-58108571D01*
X103107142Y-57608571D02*
X103107142Y-58894285D01*
X103035714Y-59037142D01*
X102892857Y-59108571D01*
X102750000Y-59108571D01*
X102250000Y-59108571D02*
X102250000Y-58108571D01*
X102250000Y-57608571D02*
X102321428Y-57680000D01*
X102250000Y-57751428D01*
X102178571Y-57680000D01*
X102250000Y-57608571D01*
X102250000Y-57751428D01*
X101535714Y-59108571D02*
X101535714Y-58108571D01*
X101535714Y-58251428D02*
X101464285Y-58180000D01*
X101321428Y-58108571D01*
X101107142Y-58108571D01*
X100964285Y-58180000D01*
X100892857Y-58322857D01*
X100892857Y-59108571D01*
X100892857Y-58322857D02*
X100821428Y-58180000D01*
X100678571Y-58108571D01*
X100464285Y-58108571D01*
X100321428Y-58180000D01*
X100250000Y-58322857D01*
X100250000Y-59108571D01*
X98964285Y-59037142D02*
X99107142Y-59108571D01*
X99392857Y-59108571D01*
X99535714Y-59037142D01*
X99607142Y-58894285D01*
X99607142Y-58322857D01*
X99535714Y-58180000D01*
X99392857Y-58108571D01*
X99107142Y-58108571D01*
X98964285Y-58180000D01*
X98892857Y-58322857D01*
X98892857Y-58465714D01*
X99607142Y-58608571D01*
X97678571Y-59037142D02*
X97821428Y-59108571D01*
X98107142Y-59108571D01*
X98250000Y-59037142D01*
X98321428Y-58894285D01*
X98321428Y-58322857D01*
X98250000Y-58180000D01*
X98107142Y-58108571D01*
X97821428Y-58108571D01*
X97678571Y-58180000D01*
X97607142Y-58322857D01*
X97607142Y-58465714D01*
X98321428Y-58608571D01*
X96750000Y-59108571D02*
X96892857Y-59037142D01*
X96964285Y-58894285D01*
X96964285Y-57608571D01*
X95607142Y-59037142D02*
X95750000Y-59108571D01*
X96035714Y-59108571D01*
X96178571Y-59037142D01*
X96250000Y-58894285D01*
X96250000Y-58322857D01*
X96178571Y-58180000D01*
X96035714Y-58108571D01*
X95750000Y-58108571D01*
X95607142Y-58180000D01*
X95535714Y-58322857D01*
X95535714Y-58465714D01*
X96250000Y-58608571D01*
X94250000Y-59037142D02*
X94392857Y-59108571D01*
X94678571Y-59108571D01*
X94821428Y-59037142D01*
X94892857Y-58965714D01*
X94964285Y-58822857D01*
X94964285Y-58394285D01*
X94892857Y-58251428D01*
X94821428Y-58180000D01*
X94678571Y-58108571D01*
X94392857Y-58108571D01*
X94250000Y-58180000D01*
X93821428Y-58108571D02*
X93250000Y-58108571D01*
X93607142Y-57608571D02*
X93607142Y-58894285D01*
X93535714Y-59037142D01*
X93392857Y-59108571D01*
X93250000Y-59108571D01*
X92750000Y-59108571D02*
X92750000Y-58108571D01*
X92750000Y-58394285D02*
X92678571Y-58251428D01*
X92607142Y-58180000D01*
X92464285Y-58108571D01*
X92321428Y-58108571D01*
X91607142Y-59108571D02*
X91750000Y-59037142D01*
X91821428Y-58965714D01*
X91892857Y-58822857D01*
X91892857Y-58394285D01*
X91821428Y-58251428D01*
X91750000Y-58180000D01*
X91607142Y-58108571D01*
X91392857Y-58108571D01*
X91250000Y-58180000D01*
X91178571Y-58251428D01*
X91107142Y-58394285D01*
X91107142Y-58822857D01*
X91178571Y-58965714D01*
X91250000Y-59037142D01*
X91392857Y-59108571D01*
X91607142Y-59108571D01*
X90464285Y-58108571D02*
X90464285Y-59108571D01*
X90464285Y-58251428D02*
X90392857Y-58180000D01*
X90250000Y-58108571D01*
X90035714Y-58108571D01*
X89892857Y-58180000D01*
X89821428Y-58322857D01*
X89821428Y-59108571D01*
X89107142Y-59108571D02*
X89107142Y-58108571D01*
X89107142Y-57608571D02*
X89178571Y-57680000D01*
X89107142Y-57751428D01*
X89035714Y-57680000D01*
X89107142Y-57608571D01*
X89107142Y-57751428D01*
X87750000Y-59037142D02*
X87892857Y-59108571D01*
X88178571Y-59108571D01*
X88321428Y-59037142D01*
X88392857Y-58965714D01*
X88464285Y-58822857D01*
X88464285Y-58394285D01*
X88392857Y-58251428D01*
X88321428Y-58180000D01*
X88178571Y-58108571D01*
X87892857Y-58108571D01*
X87750000Y-58180000D01*
X87178571Y-59037142D02*
X87035714Y-59108571D01*
X86750000Y-59108571D01*
X86607142Y-59037142D01*
X86535714Y-58894285D01*
X86535714Y-58822857D01*
X86607142Y-58680000D01*
X86750000Y-58608571D01*
X86964285Y-58608571D01*
X87107142Y-58537142D01*
X87178571Y-58394285D01*
X87178571Y-58322857D01*
X87107142Y-58180000D01*
X86964285Y-58108571D01*
X86750000Y-58108571D01*
X86607142Y-58180000D01*
X85892857Y-58965714D02*
X85821428Y-59037142D01*
X85892857Y-59108571D01*
X85964285Y-59037142D01*
X85892857Y-58965714D01*
X85892857Y-59108571D01*
X84535714Y-59037142D02*
X84678571Y-59108571D01*
X84964285Y-59108571D01*
X85107142Y-59037142D01*
X85178571Y-58965714D01*
X85250000Y-58822857D01*
X85250000Y-58394285D01*
X85178571Y-58251428D01*
X85107142Y-58180000D01*
X84964285Y-58108571D01*
X84678571Y-58108571D01*
X84535714Y-58180000D01*
X83678571Y-59108571D02*
X83821428Y-59037142D01*
X83892857Y-58965714D01*
X83964285Y-58822857D01*
X83964285Y-58394285D01*
X83892857Y-58251428D01*
X83821428Y-58180000D01*
X83678571Y-58108571D01*
X83464285Y-58108571D01*
X83321428Y-58180000D01*
X83250000Y-58251428D01*
X83178571Y-58394285D01*
X83178571Y-58822857D01*
X83250000Y-58965714D01*
X83321428Y-59037142D01*
X83464285Y-59108571D01*
X83678571Y-59108571D01*
X82535714Y-59108571D02*
X82535714Y-58108571D01*
X82535714Y-58251428D02*
X82464285Y-58180000D01*
X82321428Y-58108571D01*
X82107142Y-58108571D01*
X81964285Y-58180000D01*
X81892857Y-58322857D01*
X81892857Y-59108571D01*
X81892857Y-58322857D02*
X81821428Y-58180000D01*
X81678571Y-58108571D01*
X81464285Y-58108571D01*
X81321428Y-58180000D01*
X81250000Y-58322857D01*
X81250000Y-59108571D01*
%LPC*%
D11*
X72390000Y-83820000D03*
D12*
X72390000Y-76200000D03*
X74390000Y-54610000D03*
G36*
G01*
X71539000Y-55410000D02*
X71539000Y-53810000D01*
G75*
G02*
X71590000Y-53759000I51000J0D01*
G01*
X73190000Y-53759000D01*
G75*
G02*
X73241000Y-53810000I0J-51000D01*
G01*
X73241000Y-55410000D01*
G75*
G02*
X73190000Y-55461000I-51000J0D01*
G01*
X71590000Y-55461000D01*
G75*
G02*
X71539000Y-55410000I0J51000D01*
G01*
G37*
D11*
X72390000Y-94615000D03*
D12*
X72390000Y-86995000D03*
D13*
X96520000Y-57150000D03*
D14*
X96520000Y-49530000D03*
D13*
X105410000Y-57150000D03*
D14*
X105410000Y-49530000D03*
D15*
X92710000Y-92710000D03*
X112395000Y-48895000D03*
X74295000Y-48895000D03*
D11*
X106680000Y-73660000D03*
D12*
X99060000Y-73660000D03*
X96520000Y-73660000D03*
D11*
X88900000Y-73660000D03*
D12*
X76835000Y-60405000D03*
X76835000Y-65405000D03*
X80645000Y-65405000D03*
X80645000Y-60405000D03*
X85725000Y-67865000D03*
X85725000Y-62865000D03*
X109855000Y-75565000D03*
X114855000Y-75565000D03*
X90885000Y-76835000D03*
X95885000Y-76835000D03*
X83185000Y-76835000D03*
X88185000Y-76835000D03*
X109855000Y-72390000D03*
X114855000Y-72390000D03*
D16*
X101600000Y-78380000D03*
X106500000Y-78380000D03*
G36*
G01*
X97499000Y-88230001D02*
X97499000Y-87029999D01*
G75*
G02*
X97549999Y-86979000I50999J0D01*
G01*
X98750001Y-86979000D01*
G75*
G02*
X98801000Y-87029999I0J-50999D01*
G01*
X98801000Y-88230001D01*
G75*
G02*
X98750001Y-88281000I-50999J0D01*
G01*
X97549999Y-88281000D01*
G75*
G02*
X97499000Y-88230001I0J50999D01*
G01*
G37*
G36*
G01*
X109299000Y-88230001D02*
X109299000Y-87029999D01*
G75*
G02*
X109349999Y-86979000I50999J0D01*
G01*
X110550001Y-86979000D01*
G75*
G02*
X110601000Y-87029999I0J-50999D01*
G01*
X110601000Y-88230001D01*
G75*
G02*
X110550001Y-88281000I-50999J0D01*
G01*
X109349999Y-88281000D01*
G75*
G02*
X109299000Y-88230001I0J50999D01*
G01*
G37*
D17*
X90805000Y-85725000D03*
X90805000Y-80645000D03*
X81280000Y-80645000D03*
X81280000Y-85725000D03*
G36*
G01*
X90335000Y-71336000D02*
X88735000Y-71336000D01*
G75*
G02*
X88684000Y-71285000I0J51000D01*
G01*
X88684000Y-69685000D01*
G75*
G02*
X88735000Y-69634000I51000J0D01*
G01*
X90335000Y-69634000D01*
G75*
G02*
X90386000Y-69685000I0J-51000D01*
G01*
X90386000Y-71285000D01*
G75*
G02*
X90335000Y-71336000I-51000J0D01*
G01*
G37*
D11*
X104775000Y-62865000D03*
X92075000Y-70485000D03*
X102235000Y-62865000D03*
X94615000Y-70485000D03*
X99695000Y-62865000D03*
X97155000Y-70485000D03*
X97155000Y-62865000D03*
X99695000Y-70485000D03*
X94615000Y-62865000D03*
X102235000Y-70485000D03*
X92075000Y-62865000D03*
X104775000Y-70485000D03*
X89535000Y-62865000D03*
G36*
G01*
X81546500Y-50530000D02*
X81546500Y-48530000D01*
G75*
G02*
X81597500Y-48479000I51000J0D01*
G01*
X83502500Y-48479000D01*
G75*
G02*
X83553500Y-48530000I0J-51000D01*
G01*
X83553500Y-50530000D01*
G75*
G02*
X83502500Y-50581000I-51000J0D01*
G01*
X81597500Y-50581000D01*
G75*
G02*
X81546500Y-50530000I0J51000D01*
G01*
G37*
D18*
X85090000Y-49530000D03*
X87630000Y-49530000D03*
D19*
X79375000Y-69850000D03*
X78105000Y-69850000D03*
G36*
G01*
X81221000Y-69100000D02*
X81221000Y-70600000D01*
G75*
G02*
X81170000Y-70651000I-51000J0D01*
G01*
X80120000Y-70651000D01*
G75*
G02*
X80069000Y-70600000I0J51000D01*
G01*
X80069000Y-69100000D01*
G75*
G02*
X80120000Y-69049000I51000J0D01*
G01*
X81170000Y-69049000D01*
G75*
G02*
X81221000Y-69100000I0J-51000D01*
G01*
G37*
D20*
X84375000Y-94615000D03*
X81875000Y-89615000D03*
X79375000Y-94615000D03*
D12*
X112395000Y-86360000D03*
D11*
X112395000Y-81280000D03*
G36*
G01*
X71489000Y-63715000D02*
X71489000Y-62015000D01*
G75*
G02*
X71540000Y-61964000I51000J0D01*
G01*
X73240000Y-61964000D01*
G75*
G02*
X73291000Y-62015000I0J-51000D01*
G01*
X73291000Y-63715000D01*
G75*
G02*
X73240000Y-63766000I-51000J0D01*
G01*
X71540000Y-63766000D01*
G75*
G02*
X71489000Y-63715000I0J51000D01*
G01*
G37*
D21*
X72390000Y-65405000D03*
X72390000Y-67945000D03*
X72390000Y-70485000D03*
M02*
